# File created by Blade
# Date/Time:  Tue Sep 30 19:28:49 2014
#---------------------------------------------------------
:version 1.10
:name HOM
:units
  mass 1.0
  length 1.000000
  angle deg
:documentation
     Acclaim Skeleton File
:root
   axis xyz
   order TX TY TZ RX RY RZ
   position 0.000000 0.000000 0.000000
   orientation 0 0 0
:bonedata
   begin
      id 1
      name RightUpLeg_dum
      direction -1.000000 0.000000 0.000000
      length 3.766986
      axis 0.0 0.0 0.0 xyz
   end
   begin
      id 2
      name LeftUpLeg_dum
      direction 1.000000 0.000000 0.000000
      length 3.766986
      axis 0.0 0.0 0.0 xyz
   end
   begin
      id 3
      name Spine_dum
      direction 0.000000 1.000000 0.000000
      length 7.779697
      axis 0.0 0.0 0.0 xyz
   end
   begin
      id 4
      name RightUpLeg
      direction 0.000000 -1.000000 0.000000
      length 18.017682
      axis 0.0 0.0 0.0 xyz
      dof rx ry rz
   end
   begin
      id 5
      name RightLeg
      direction 0.000000 -1.000000 0.000000
      length 16.881075
      axis 0.0 0.0 0.0 xyz
      dof rx ry rz
   end
   begin
      id 6
      name RightFoot
      direction 0.000000 -0.258819 0.965926
      length 5.770812
      axis 15.0 0.0 0.0 xyz
      dof rx ry rz
   end
   begin
      id 7
      name RightToeBase
      direction 0.000000 0.000000 1.000000
      length 2.952750
      axis 0.0 0.0 0.0 xyz
      dof rx ry rz
   end
   begin
      id 8
      name LeftUpLeg
      direction 0.000000 -1.000000 0.000000
      length 18.017682
      axis 0.0 0.0 0.0 xyz
      dof rx ry rz
   end
   begin
      id 9
      name LeftLeg
      direction 0.000000 -1.000000 0.000000
      length 16.881075
      axis 0.0 0.0 0.0 xyz
      dof rx ry rz
   end
   begin
      id 10
      name LeftFoot
      direction 0.000000 -0.258819 0.965926
      length 5.770812
      axis 15.0 0.0 0.0 xyz
      dof rx ry rz
   end
   begin
      id 11
      name LeftToeBase
      direction 0.000000 0.000000 1.000000
      length 2.952750
      axis 0.0 0.0 0.0 xyz
      dof rx ry rz
   end
   begin
      id 12
      name Spine
      direction 0.000000 1.000000 0.000000
      length 0.000000
      axis 0.0 0.0 0.0 xyz
      dof rx ry rz
   end
   begin
      id 13
      name Spine_dum1
      direction 0.000000 1.000000 0.000000
      length 10.941760
      axis 0.0 0.0 0.0 xyz
   end
   begin
      id 14
      name Spine_dum2
      direction 0.000000 1.000000 0.000000
      length 10.941760
      axis 0.0 0.0 0.0 xyz
   end
   begin
      id 15
      name Spine_dum3
      direction 0.000000 1.000000 0.000000
      length 16.646042
      axis 0.0 0.0 0.0 xyz
   end
   begin
      id 16
      name RightShoulder
      direction -1.000000 0.000000 0.000000
      length 7.708937
      axis 0.0 0.0 90.0 xyz
      dof rx ry rz
   end
   begin
      id 17
      name RightArm
      direction -1.000000 0.000000 0.000000
      length 11.521345
      axis 0.0 0.0 90.0 xyz
      dof rx ry rz
   end
   begin
      id 18
      name RightForeArm
      direction -1.000000 0.000000 0.000000
      length 10.175898
      axis 0.0 0.0 90.0 xyz
      dof ry rz rx
   end
   begin
      id 19
      name RightHand
      direction -1.000000 0.000000 0.000000
      length 0.000000
      axis 0.0 0.0 90.0 xyz
      dof rx ry rz
   end
   begin
      id 20
      name RightHand_dum1
      direction -1.000000 0.000000 0.000000
      length 3.937000
      axis 0.0 0.0 90.0 xyz
   end
   begin
      id 21
      name RightHand_dum2
      direction 0.000000 0.000000 0.000000
      length 0.000000
      axis 0.0 0.0 90.0 xyz
   end
   begin
      id 22
      name RightHandThumb1
      direction 0.000000 0.000000 1.000000
      length 3.937000
      axis 0.0 0.0 90.0 xyz
      dof rx rz ry
   end
   begin
      id 23
      name LeftShoulder
      direction 1.000000 0.000000 0.000000
      length 7.708937
      axis 0.0 0.0 -90.0 xyz
      dof rx ry rz
   end
   begin
      id 24
      name LeftArm
      direction 1.000000 0.000000 0.000000
      length 11.521345
      axis 0.0 0.0 -90.0 xyz
      dof rx ry rz
   end
   begin
      id 25
      name LeftForeArm
      direction 1.000000 0.000000 0.000000
      length 10.175898
      axis 0.0 0.0 -90.0 xyz
      dof ry rz rx
   end
   begin
      id 26
      name LeftHand
      direction 1.000000 0.000000 0.000000
      length 0.000000
      axis 0.0 0.0 -90.0 xyz
      dof rx ry rz
   end
   begin
      id 27
      name LeftHand_dum1
      direction 1.000000 0.000000 0.000000
      length 3.937000
      axis 0.0 0.0 -90.0 xyz
   end
   begin
      id 28
      name LeftHand_dum2
      direction 0.000000 0.000000 0.000000
      length 0.000000
      axis 0.0 0.0 -90.0 xyz
   end
   begin
      id 29
      name LeftHandThumb1
      direction 0.000000 0.000000 1.000000
      length 3.937000
      axis 0.0 0.0 -90.0 xyz
      dof rx rz ry
   end
   begin
      id 30
      name Head
      direction 0.000000 1.000000 0.000000
      length 4.527550
      axis 0.0 0.0 0.0 xyz
      dof rx ry rz
   end
:hierarchy
   begin
      root RightUpLeg_dum LeftUpLeg_dum Spine_dum
      RightUpLeg_dum RightUpLeg
      LeftUpLeg_dum LeftUpLeg
      Spine_dum Spine
      RightUpLeg RightLeg
      RightLeg RightFoot
      RightFoot RightToeBase
      LeftUpLeg LeftLeg
      LeftLeg LeftFoot
      LeftFoot LeftToeBase
      Spine Spine_dum1 Spine_dum2 Spine_dum3
      Spine_dum1 RightShoulder
      Spine_dum2 LeftShoulder
      Spine_dum3 Head
      RightShoulder RightArm
      RightArm RightForeArm
      RightForeArm RightHand
      RightHand RightHand_dum1 RightHand_dum2
      RightHand_dum2 RightHandThumb1
      LeftShoulder LeftArm
      LeftArm LeftForeArm
      LeftForeArm LeftHand
      LeftHand LeftHand_dum1 LeftHand_dum2
      LeftHand_dum2 LeftHandThumb1
   end

# File created by Blade
# Date/Time:  Mon Sep 22 15:50:36 2014
# Frame Rate: 120.000 fps
#------------------------------------------------------
:FULLY-SPECIFIED
:DEGREES
435
root 2.335354 36.965732 2.774383 -3.719367 -10.032215 1.178100
RightUpLeg 10.066138 -0.852875 -3.627227
RightLeg -4.868065 -0.000000 0.000000
RightFoot -11.530162 -13.362179 14.862608
RightToeBase 14.996079 -0.000000 -0.000000
LeftUpLeg 11.118229 6.587564 1.837892
LeftLeg -2.658623 -0.000000 0.000000
LeftFoot -11.791924 15.779685 -17.333381
LeftToeBase 9.411081 -0.000000 -0.000000
Spine 2.309622 -11.640576 -1.797774
RightShoulder 5.295559 -27.726872 -7.158101
RightArm 32.895130 -30.947452 56.825510
RightForeArm 14.471766 -0.000000 30.526859
RightHand 2.941688 -0.000000 -1.708449
RightHandThumb1 -24.326973 -0.000000 -32.862282
LeftShoulder -7.037410 21.337732 14.404743
LeftArm 86.227634 -14.202664 -98.582661
LeftForeArm -39.118025 -0.000000 124.600211
LeftHand -6.340677 -0.000000 0.509614
LeftHandThumb1 -26.253704 0.000000 33.147579
Head 7.488077 23.636593 9.893764
436
root 2.333978 36.965277 2.774762 -3.725528 -10.013158 1.183736
RightUpLeg 10.083499 -0.826613 -3.625507
RightLeg -4.882454 -0.000000 0.000000
RightFoot -11.524231 -13.423469 14.840807
RightToeBase 14.928164 -0.000000 -0.000000
LeftUpLeg 11.124338 6.556020 1.834596
LeftLeg -2.658701 -0.000000 0.000000
LeftFoot -11.745300 15.766192 -17.252908
LeftToeBase 9.299763 -0.000000 -0.000000
Spine 2.299022 -11.629432 -1.825273
RightShoulder 5.332455 -27.749495 -7.150514
RightArm 32.892806 -30.980499 56.804369
RightForeArm 14.507246 -0.000000 30.515759
RightHand 2.933902 -0.000000 -1.678317
RightHandThumb1 -24.326973 -0.000000 -32.862282
LeftShoulder -6.974909 21.386997 14.446746
LeftArm 86.163242 -14.193869 -98.538907
LeftForeArm -39.278011 -0.000000 124.322368
LeftHand -6.356872 -0.000000 0.478465
LeftHandThumb1 -26.253704 0.000000 33.147579
Head 7.393286 23.286518 9.768007
437
root 2.334408 36.965210 2.774312 -3.732664 -10.000504 1.195161
RightUpLeg 10.089270 -0.833559 -3.637230
RightLeg -4.882763 -0.000000 0.000000
RightFoot -11.520825 -13.441249 14.800571
RightToeBase 14.933989 -0.000000 -0.000000
LeftUpLeg 11.122325 6.541698 1.818917
LeftLeg -2.654658 -0.000000 0.000000
LeftFoot -11.788682 15.791140 -17.334218
LeftToeBase 9.327246 -0.000000 -0.000000
Spine 2.308586 -11.630691 -1.838950
RightShoulder 5.354398 -27.741394 -7.156783
RightArm 32.903690 -31.026951 56.794904
RightForeArm 14.496460 0.000000 30.480642
RightHand 2.951350 -0.000000 -1.705231
RightHandThumb1 -24.326973 -0.000000 -32.862282
LeftShoulder -6.967175 21.386107 14.442563
LeftArm 86.088796 -14.201517 -98.477702
LeftForeArm -39.329256 -0.000000 124.051658
LeftHand -6.374339 -0.000000 0.324021
LeftHandThumb1 -26.253704 0.000000 33.147579
Head 7.326300 23.211480 9.722170
438
root 2.335125 36.965542 2.774724 -3.748209 -9.995648 1.187651
RightUpLeg 10.104835 -0.859476 -3.634717
RightLeg -4.878828 -0.000000 0.000000
RightFoot -11.519925 -13.403805 14.830693
RightToeBase 14.918395 -0.000000 -0.000000
LeftUpLeg 11.138872 6.524573 1.825036
LeftLeg -2.654682 -0.000000 0.000000
LeftFoot -11.798541 15.795750 -17.358493
LeftToeBase 9.388871 -0.000000 -0.000000
Spine 2.352338 -11.620996 -1.800957
RightShoulder 5.329557 -27.712724 -7.182331
RightArm 32.932419 -31.068914 56.805698
RightForeArm 14.455694 -0.000000 30.433959
RightHand 2.934440 0.000000 -1.716555
RightHandThumb1 -24.326973 -0.000000 -32.862282
LeftShoulder -6.985642 21.357868 14.380896
LeftArm 86.019847 -14.205206 -98.388790
LeftForeArm -39.368185 0.000000 123.781883
LeftHand -6.386511 -0.000000 0.176299
LeftHandThumb1 -26.253704 0.000000 33.147579
Head 7.296772 23.526604 9.771137
439
root 2.335158 36.965793 2.773322 -3.750903 -9.991238 1.189549
RightUpLeg 10.103511 -0.858803 -3.635050
RightLeg -4.868588 -0.000000 0.000000
RightFoot -11.557475 -13.401301 14.906727
RightToeBase 14.966491 -0.000000 -0.000000
LeftUpLeg 11.131749 6.512151 1.820975
LeftLeg -2.641195 -0.000000 0.000000
LeftFoot -11.801393 15.810284 -17.335112
LeftToeBase 9.332661 -0.000000 -0.000000
Spine 2.367671 -11.619689 -1.796747
RightShoulder 5.341091 -27.718578 -7.189984
RightArm 32.955947 -31.081759 56.805702
RightForeArm 14.444273 -0.000000 30.397138
RightHand 2.933575 -0.000000 -1.735442
RightHandThumb1 -24.326973 -0.000000 -32.862282
LeftShoulder -6.990070 21.362037 14.357672
LeftArm 85.954731 -14.217532 -98.323337
LeftForeArm -39.541255 0.000000 123.540648
LeftHand -6.442887 -0.000000 0.430245
LeftHandThumb1 -26.253704 0.000000 33.147579
Head 7.234394 23.547837 9.756513
